<svg xmlns="http://www.w3.org/2000/svg" width="512" height="512" viewBox="0 0 512 512">
  <defs>
    <linearGradient id="bg" x1="0" y1="0" x2="0.4" y2="1">
      <stop offset="0" stop-color="#252B3B"/>
      <stop offset="0.55" stop-color="#171B26"/>
      <stop offset="1" stop-color="#0D0F16"/>
    </linearGradient>
    <radialGradient id="glow" cx="0.28" cy="0.16" r="0.85">
      <stop offset="0" stop-color="#5B6480" stop-opacity="0.45"/>
      <stop offset="1" stop-color="#5B6480" stop-opacity="0"/>
    </radialGradient>
    <linearGradient id="g1" x1="0" y1="0" x2="1" y2="0">
      <stop offset="0" stop-color="#FFB25C"/><stop offset="1" stop-color="#F98A35"/>
    </linearGradient>
    <linearGradient id="g2" x1="0" y1="0" x2="1" y2="0">
      <stop offset="0" stop-color="#5FDB96"/><stop offset="1" stop-color="#34B872"/>
    </linearGradient>
    <linearGradient id="g3" x1="0" y1="0" x2="1" y2="0">
      <stop offset="0" stop-color="#8C95AD"/><stop offset="1" stop-color="#666E86"/>
    </linearGradient>
    <linearGradient id="ch" x1="0" y1="0" x2="1" y2="1">
      <stop offset="0" stop-color="#E7EBF5"/><stop offset="1" stop-color="#9AA3BC"/>
    </linearGradient>
    <filter id="s1" x="-50%" y="-120%" width="200%" height="340%">
      <feDropShadow dx="0" dy="6" stdDeviation="10" flood-color="#F98A35" flood-opacity="0.45"/>
    </filter>
    <filter id="s2" x="-50%" y="-120%" width="200%" height="340%">
      <feDropShadow dx="0" dy="6" stdDeviation="10" flood-color="#34B872" flood-opacity="0.4"/>
    </filter>
    <filter id="s3" x="-50%" y="-120%" width="200%" height="340%">
      <feDropShadow dx="0" dy="6" stdDeviation="10" flood-color="#000000" flood-opacity="0.35"/>
    </filter>
  </defs>
  <rect width="512" height="512" rx="114" fill="url(#bg)"/>
  <rect width="512" height="512" rx="114" fill="url(#glow)"/>
  <rect x="2" y="2" width="508" height="508" rx="112" fill="none" stroke="#FFFFFF" stroke-opacity="0.10" stroke-width="4"/>
  <g stroke="url(#ch)" stroke-width="38" stroke-linecap="round" stroke-linejoin="round" fill="none" opacity="0.92">
    <polyline points="116,201 167,256 116,311"/>
  </g>
  <g>
    <rect x="206" y="145" width="196" height="58" rx="29" fill="url(#g1)" filter="url(#s1)"/>
    <rect x="206" y="227" width="140" height="58" rx="29" fill="url(#g2)" filter="url(#s2)"/>
    <rect x="206" y="309" width="92"  height="58" rx="29" fill="url(#g3)" filter="url(#s3)"/>
  </g>
</svg>
